<svg width="295" height="234" viewBox="0 0 295 234" fill="none" xmlns="http://www.w3.org/2000/svg">
<path d="M193.664 7.49713C190.511 8.86023 174.298 16.5845 157.634 24.536C140.969 32.4874 122.504 41.1204 116.649 43.3923L105.84 47.7088V37.4855C105.84 28.1709 106.515 27.035 114.397 22.9457C121.603 19.0835 122.053 18.402 118.45 16.8117C113.046 14.767 95.0305 18.6292 75.8893 25.8991C67.5572 29.0797 56.9733 31.8059 52.6946 31.8059C45.0381 31.8059 44.8129 32.0331 45.4885 39.0758C46.1641 46.1185 46.6145 46.5728 54.4962 46.3457C60.5763 46.1185 62.3778 46.8 61.4771 49.0719C60.8015 50.8894 59.4504 52.2525 58.3244 52.2525C57.1984 52.2525 56.2977 53.6156 56.2977 55.2059C56.2977 56.7961 52.6946 61.7942 48.1908 66.1107C40.7595 73.3806 39.1832 73.835 25.6717 73.835C13.7366 73.835 11.0343 74.5165 9.90837 77.6971C8.10684 83.8311 10.8091 86.3301 19.1412 86.3301C23.4198 86.3301 27.2481 87.2389 27.9236 88.3748C28.5992 89.5107 23.1946 97.9165 15.7633 107.004C0.225165 126.087 1.8015 131.54 17.5649 113.592C36.7061 91.5554 44.5878 85.4214 62.603 79.0602C79.4923 73.1534 79.9427 73.1534 80.6183 77.4699C81.0687 79.969 76.3397 92.9185 69.8091 106.095C63.5038 119.499 57.874 134.948 57.1984 140.627C56.0725 150.851 56.0725 150.851 59.4504 145.398C64.4045 136.992 84.4465 95.8719 89.1755 84.0583C95.7061 67.9282 103.363 59.2952 117.324 52.0253C124.53 48.6175 130.836 44.5282 131.737 43.1651C132.412 42.0292 135.79 40.8932 138.943 40.8932C144.798 40.8932 144.798 41.1204 143.447 54.5243C142.546 62.0214 139.393 74.5165 136.015 82.0136C132.863 89.7379 128.359 105.414 125.882 116.546C123.405 127.905 120.702 138.128 120.027 139.264C117.55 143.353 110.343 174.023 110.343 181.066C110.343 190.381 114.397 192.88 115.973 184.701C116.649 181.293 119.126 171.751 121.603 163.573C123.855 155.394 126.557 146.534 127.233 143.581C128.134 140.854 129.485 138.583 130.611 138.583C131.511 138.583 135.79 146.08 140.069 154.94C151.103 178.113 171.37 199.014 193.664 209.691C217.759 221.278 245.008 224.231 276.985 218.779C284.416 217.643 284.641 217.416 279.237 215.825C276.084 215.144 267.076 214.689 258.969 214.917C240.729 215.598 220.011 212.19 208.301 206.284C170.695 187.882 155.156 171.524 142.095 136.311C133.088 112.456 135.114 109.276 169.343 92.0097C189.611 81.7864 196.817 75.8796 216.183 54.9787C218.66 52.0253 222.038 44.301 223.389 37.4855C226.542 21.8097 223.389 13.6311 212.58 8.40587C203.572 4.08936 201.321 3.86217 193.664 7.49713ZM195.916 14.767C195.916 17.0389 198.168 18.1748 202.221 18.1748C209.878 18.1748 218.435 23.8544 218.435 29.0797C218.435 31.3515 214.156 37.2583 208.977 42.4835C198.843 52.0253 165.065 78.833 157.183 83.1495C154.706 84.7398 151.553 87.0117 150.202 88.3748C142.546 96.0991 139.393 87.6932 145.473 76.1068C151.553 64.5204 155.607 51.5709 155.832 42.7107C155.832 33.169 158.534 30.2156 175.198 21.5826C181.729 18.1748 187.584 14.5398 188.259 13.4039C190.286 9.99615 195.916 11.1321 195.916 14.767ZM101.336 32.9418C101.336 34.7593 99.7595 40.4389 97.7328 45.6641C94.5801 53.3884 92.103 55.6602 81.5191 60.4311C66.4313 67.0194 63.0534 67.2466 63.0534 61.1127C63.0534 53.8427 75.2137 39.7573 86.2481 34.3049C97.5076 28.6253 101.336 28.3981 101.336 32.9418Z" fill="#F7EDE2"/>
<path d="M183.981 38.167C179.477 43.1651 179.027 47.7088 183.08 47.7088C187.359 47.7088 191.412 42.9379 191.412 38.167C191.412 32.9418 188.71 32.9418 183.981 38.167Z" fill="#F7EDE2"/>
<path d="M264.149 57.9321C256.492 66.1107 247.485 77.2428 244.332 82.6952C237.576 94.5088 234.424 114.047 238.702 119.272C242.53 124.043 239.603 137.901 232.847 146.988C226.092 156.076 226.092 159.256 233.072 165.845C238.027 170.616 239.153 170.843 241.855 167.889C248.16 161.074 252.889 134.493 251.538 114.501C250.187 96.5534 250.637 94.736 256.717 82.6952C260.546 75.8797 267.977 64.0661 273.607 56.569C279.237 49.2991 282.389 43.1651 281.038 43.1651C279.462 43.1651 271.805 49.7534 264.149 57.9321Z" fill="#F7EDE2"/>
<path d="M213.931 103.369C213.931 105.186 211.905 106.777 209.427 106.777C199.744 106.777 193.664 126.996 198.844 141.99C202.672 152.895 210.553 155.621 213.706 147.216C214.832 144.262 217.76 139.946 220.462 137.674C225.866 132.676 226.767 119.045 222.714 107.004C220.237 99.734 213.931 97.235 213.931 103.369ZM214.832 117.227C219.111 121.317 219.111 122.68 216.183 130.404C213.481 137.901 205.599 138.355 203.798 131.085C202.221 125.179 205.824 113.592 209.202 113.592C210.328 113.592 213.031 115.183 214.832 117.227Z" fill="#F7EDE2"/>
<path d="M177.225 110.184C171.821 115.41 171.145 117.682 171.145 131.313C171.145 148.351 173.397 152.214 182.63 152.214C189.836 152.214 192.538 146.988 188.935 140.4C186.458 135.856 186.908 128.132 190.286 111.775C191.637 105.641 191.412 104.505 187.809 104.505C185.332 104.505 180.603 107.004 177.225 110.184Z" fill="#F7EDE2"/>
</svg>
